<?xml version="1.0" encoding="iso-8859-1"?>
<!-- Generator: Adobe Illustrator 19.0.0, SVG Export Plug-In . SVG Version: 6.00 Build 0)  -->
<svg version="1.1" id="Layer_1" xmlns="http://www.w3.org/2000/svg" xmlns:xlink="http://www.w3.org/1999/xlink" x="0px" y="0px"
	 viewBox="0 0 512.001 512.001" style="enable-background:new 0 0 512.001 512.001;" xml:space="preserve">
<path style="fill:#F2F2F2;" d="M39.829,85.526c-3.716-5.507-5.875-12.143-5.875-19.281c0-19.073,15.467-34.527,34.539-34.527
	c4.759,0,9.285,0.957,13.406,2.698C81.973,15.393,97.403,0,116.439,0c6.856,0,13.247,2.012,18.631,5.47
	C140.442,2.012,146.832,0,153.701,0c19.036,0,34.466,15.393,34.527,34.417c4.133-1.742,8.659-2.698,13.418-2.698
	c19.073,0,34.527,15.454,34.527,34.527c0,7.126-2.159,13.749-5.863,19.257"/>
<g>
	<path style="fill:#E6E6E6;" d="M50.308,74.422c0-19.073,15.467-34.527,34.539-34.527c4.759,0,9.285,0.957,13.406,2.698
		c0.074-19.024,15.503-34.417,34.539-34.417c6.856,0,13.247,2.012,18.631,5.47c5.372-3.459,11.762-5.47,18.631-5.47
		c2.296,0,4.538,0.229,6.709,0.656C170.649,3.342,162.567,0,153.701,0c-6.869,0-13.259,2.012-18.631,5.47
		C129.685,2.012,123.295,0,116.439,0C97.403,0,81.973,15.393,81.899,34.417c-4.121-1.742-8.647-2.698-13.406-2.698
		c-19.073,0-34.539,15.454-34.539,34.527c0,7.138,2.159,13.774,5.875,19.281l12.322-0.001
		C50.967,82.037,50.308,78.308,50.308,74.422z"/>
	<path style="fill:#E6E6E6;" d="M427.901,431.233h-40.433c-8.467,0-15.332-6.865-15.332-15.332c0-8.467,6.865-15.332,15.332-15.332
		h40.433c10.743,0,19.482-8.739,19.482-19.482V280.912c0-10.743-8.739-19.482-19.482-19.482h-40.433
		c-8.467,0-15.332-6.865-15.332-15.332c0-8.467,6.865-15.332,15.332-15.332h40.433c27.65,0,50.146,22.496,50.146,50.146v100.175
		C478.047,408.737,455.551,431.233,427.901,431.233z"/>
</g>
<path style="fill:#FDBB00;" d="M230.304,111.872V81.666H39.829v147.545c0,30.443,3.368,60.791,10.043,90.493l0,0
	c8.199,36.483,11.402,73.911,9.52,111.255l-2.263,44.934c-0.99,19.641,14.668,36.108,34.334,36.108h87.205
	c19.666,0,35.324-16.466,34.334-36.108l-2.263-44.934c-1.882-37.346,1.321-74.773,9.52-111.255l0,0
	c6.675-29.702,10.043-60.05,10.043-90.493L230.304,111.872"/>
<path style="fill:#EDAB06;" d="M89.021,475.893l2.263-44.934c1.882-37.346-1.321-74.773-9.52-111.255l0,0
	c-6.675-29.702-10.043-60.05-10.043-90.493V81.666h-31.89v147.545c0,30.443,3.368,60.791,10.043,90.493l0,0
	c8.199,36.482,11.402,73.911,9.52,111.255l-2.263,44.934C56.141,495.534,71.799,512,91.465,512h31.89
	C103.689,512,88.031,495.534,89.021,475.893z"/>
<rect x="39.829" y="81.184" style="fill:#E6E6E6;" width="190.469" height="49.99"/>
<rect x="39.829" y="81.184" style="fill:#CCCCCC;" width="31.89" height="49.99"/>
<polyline style="fill:#F2F2F2;" points="372.62,473.879 363.674,512 184.134,512 175.187,473.879 "/>
<polygon style="fill:#E6E6E6;" points="175.187,473.879 184.134,512 214.387,512 205.442,473.879 "/>
<path style="fill:#F2F2F2;" d="M392.246,225.561c2.833-5.532,4.441-11.796,4.441-18.437c0-22.377-18.139-40.516-40.516-40.516
	c-3.595,0-7.078,0.473-10.397,1.353c-4.346-9.123-13.649-15.43-24.426-15.43c-6.461,0-12.39,2.269-17.043,6.049
	c-7.424-8.425-18.288-13.747-30.401-13.747c-12.112,0-22.975,5.322-30.401,13.747c-4.652-3.78-10.581-6.049-17.043-6.049
	c-10.779,0-20.081,6.307-24.426,15.43c-3.319-0.879-6.802-1.353-10.397-1.353c-22.377,0-40.516,18.14-40.516,40.516
	c0,6.643,1.609,12.906,4.441,18.437"/>
<path style="fill:#8CC63F;" d="M393.601,221.84H154.206v231.594c0,14.678,11.899,26.577,26.577,26.577h186.242
	c14.678,0,26.577-11.899,26.577-26.577V221.84z"/>
<path style="fill:#7EAF31;" d="M186.096,453.434V221.84h-31.89v231.594c0,14.678,11.899,26.577,26.577,26.577h31.89
	C197.995,480.011,186.096,468.111,186.096,453.434z"/>
<rect x="154.2" y="221.88" style="fill:#E6E6E6;" width="239.395" height="35.95"/>
<rect x="154.2" y="221.88" style="fill:#CCCCCC;" width="31.89" height="35.95"/>
<path style="fill:#E6E6E6;" d="M273.909,144.838c-12.118,0-22.985,5.311-30.406,13.737c-4.649-3.778-10.585-6.047-17.037-6.047
	c-10.781,0-20.091,6.304-24.433,15.43c-3.312-0.871-6.795-1.349-10.401-1.349c-22.372,0-40.512,18.14-40.512,40.512
	c0,6.648,1.607,12.903,4.44,18.435h51.073c-4.673-4.734-7.555-11.235-7.555-18.41c0-14.473,11.726-26.199,26.187-26.199
	c2.551,0,5.004,0.393,7.335,1.067c2.98-11.186,13.161-19.441,25.279-19.441c3.606,0,7.053,0.736,10.18,2.048
	c4.121-9.064,13.222-15.368,23.832-15.368c0.147,0,0.282,0,0.429,0.012C286.8,146.432,280.544,144.838,273.909,144.838z"/>
<g>
	<circle style="fill:#BBE577;" cx="300.673" cy="406.069" r="10.834"/>
	<circle style="fill:#BBE577;" cx="327.448" cy="356.75" r="9.065"/>
	<circle style="fill:#BBE577;" cx="251.403" cy="319.819" r="9.065"/>
	<circle style="fill:#BBE577;" cx="208.474" cy="447.943" r="7.738"/>
</g>
<g>
	<circle style="fill:#F9CF67;" cx="108.512" cy="421.609" r="7.738"/>
	<circle style="fill:#F9CF67;" cx="142.855" cy="357.216" r="7.738"/>
	<circle style="fill:#F9CF67;" cx="93.278" cy="231.312" r="7.738"/>
	<circle style="fill:#F9CF67;" cx="163.362" cy="157.806" r="7.738"/>
</g>
<circle style="fill:#BBE577;" cx="347.073" cy="283.011" r="7.738"/>
<g>
</g>
<g>
</g>
<g>
</g>
<g>
</g>
<g>
</g>
<g>
</g>
<g>
</g>
<g>
</g>
<g>
</g>
<g>
</g>
<g>
</g>
<g>
</g>
<g>
</g>
<g>
</g>
<g>
</g>
</svg>
