<?xml version="1.0" encoding="iso-8859-1"?>
<!-- Generator: Adobe Illustrator 19.0.0, SVG Export Plug-In . SVG Version: 6.00 Build 0)  -->
<svg version="1.1" id="Layer_1" xmlns="http://www.w3.org/2000/svg" xmlns:xlink="http://www.w3.org/1999/xlink" x="0px" y="0px"
	 viewBox="0 0 512 512" style="enable-background:new 0 0 512 512;" xml:space="preserve">
<path style="fill:#FDBB00;" d="M432.29,141.034c0-20.633-16.727-37.36-37.36-37.36c-0.723,0-1.441,0.025-2.153,0.066
	c0.363-2.088,0.562-4.233,0.562-6.426c0-20.633-16.727-37.36-37.36-37.36c-3.445,0-6.777,0.476-9.945,1.349
	c-3.208-17.373-18.426-30.537-36.727-30.537c-7.125,0-13.781,1.996-19.446,5.457c-5.951-12.739-18.872-21.568-33.86-21.568
	c-14.988,0-27.907,8.829-33.86,21.568c-5.665-3.461-12.323-5.457-19.446-5.457c-18.302,0-33.519,13.164-36.727,30.537
	c-3.168-0.873-6.5-1.349-9.945-1.349c-20.633,0-37.36,16.727-37.36,37.36c0,2.193,0.199,4.337,0.562,6.426
	c-0.713-0.041-1.43-0.066-2.153-0.066c-20.633,0-37.36,16.727-37.36,37.36"/>
<g>
	<path style="fill:#EDAB06;" d="M183.367,103.674c0.723,0,1.44,0.025,2.153,0.066c-0.363-2.088-0.562-4.233-0.562-6.426
		c0-20.633,16.727-37.36,37.36-37.36c3.445,0,6.777,0.476,9.945,1.349c3.208-17.373,18.426-30.537,36.727-30.537
		c7.125,0,13.781,1.996,19.446,5.457c0.221-0.473,0.47-0.929,0.71-1.39c-6.222-11.979-18.716-20.178-33.148-20.178
		c-14.988,0-27.907,8.829-33.86,21.568c-5.665-3.461-12.323-5.457-19.446-5.457c-18.302,0-33.519,13.164-36.727,30.537
		c-3.168-0.873-6.5-1.349-9.945-1.349c-20.633,0-37.36,16.727-37.36,37.36c0,2.193,0.199,4.337,0.562,6.426
		c-0.713-0.041-1.43-0.066-2.153-0.066c-20.633,0-37.36,16.727-37.36,37.36h66.298C146.006,120.401,162.733,103.674,183.367,103.674
		z"/>
	<path style="fill:#EDAB06;" d="M306.827,96.781c0-11.752-9.527-21.279-21.279-21.279s-21.279,9.527-21.279,21.279"/>
	<path style="fill:#EDAB06;" d="M377.061,133.487c0-11.752-9.527-21.279-21.279-21.279c-11.752,0-21.279,9.527-21.279,21.279"/>
</g>
<path style="fill:#8CC63F;" d="M89.178,497.344l24.299-319.625l1.266-16.656c46.597-9.566,93.931-14.338,141.252-14.338
	s94.654,4.772,141.252,14.338l1.266,16.656l24.299,319.625H89.178z"/>
<g>
	<path style="fill:#7EAF31;" d="M113.478,177.72l1.266-16.656c46.597-9.566,93.931-14.338,141.252-14.338
		s94.654,4.772,141.252,14.338l1.266,16.656c-0.418-0.09-0.848-0.169-1.266-0.261c-46.597-9.566-93.931-14.338-141.252-14.338
		s-94.654,4.772-141.252,14.338C114.327,177.549,113.897,177.629,113.478,177.72z"/>
	<path style="fill:#7EAF31;" d="M349.963,153.045c15.796,2.125,31.548,4.806,47.219,8.018l25.566,336.281h-48.327L349.963,153.045z"
		/>
</g>
<polygon style="fill:#A67C52;" points="175.714,259.199 196.975,259.199 404.713,259.199 400.212,200.085 196.975,200.085 
	196.975,200.085 111.784,200.085 107.284,259.199 "/>
<path style="fill:#FDBB00;" d="M196.975,200.085v-9.713c0-8.56,6.931-15.502,15.491-15.502h87.067
	c8.56,0,15.491,6.943,15.491,15.502v9.713v59.114v9.713c0,8.56-6.931,15.502-15.491,15.502h-87.067
	c-8.56,0-15.491-6.943-15.491-15.502v-9.713L196.975,200.085L196.975,200.085z"/>
<rect x="227.402" y="204.11" style="fill:#A67C52;" width="57.207" height="51.068"/>
<polygon style="fill:#936841;" points="353.309,200.085 400.145,200.085 404.645,259.199 357.505,259.199 "/>
<path style="fill:#8CC63F;" d="M114.747,165.02c-31.13,6.366-61.93,14.869-92.189,25.51c-8.684,3.042-18.204-1.403-21.462-10.018
	C0.351,178.543,0,176.52,0,174.53c0-6.999,4.364-13.569,11.364-16.034c79.22-27.816,161.921-41.736,244.635-41.736
	s165.415,13.919,244.635,41.736c8.989,3.166,13.636,13.106,10.267,22.015c-2.567,6.784-9.001,10.979-15.865,10.979
	c-1.854,0-3.742-0.316-5.597-0.961c-30.259-10.64-61.059-19.144-92.189-25.51c-46.598-9.566-93.931-14.338-141.252-14.338
	S161.344,155.454,114.747,165.02z"/>
<rect x="227.402" y="204.11" style="fill:#936841;" width="12.764" height="51.068"/>
<g>
</g>
<g>
</g>
<g>
</g>
<g>
</g>
<g>
</g>
<g>
</g>
<g>
</g>
<g>
</g>
<g>
</g>
<g>
</g>
<g>
</g>
<g>
</g>
<g>
</g>
<g>
</g>
<g>
</g>
</svg>
