<?xml version="1.0" encoding="iso-8859-1"?>
<!-- Generator: Adobe Illustrator 19.0.0, SVG Export Plug-In . SVG Version: 6.00 Build 0)  -->
<svg version="1.1" id="Layer_1" xmlns="http://www.w3.org/2000/svg" xmlns:xlink="http://www.w3.org/1999/xlink" x="0px" y="0px"
	 viewBox="0 0 511.999 511.999" style="enable-background:new 0 0 511.999 511.999;" xml:space="preserve">
<path style="fill:#8CC63F;" d="M405.961,62.116L405.961,62.116c-82.822-82.822-217.101-82.822-299.923,0l0,0
	c-82.822,82.822-82.822,217.101,0,299.922L256,511.999l149.961-149.961C488.782,279.217,488.782,144.938,405.961,62.116z"/>
<circle style="fill:#FDBB00;" cx="256.002" cy="212.078" r="138.677"/>
<path style="fill:#EDAB06;" d="M160.459,212.078c0-69.25,50.762-126.64,117.106-136.999c-7.029-1.098-14.23-1.671-21.566-1.671
	c-76.586,0-138.672,62.086-138.672,138.672S179.413,350.75,256,350.75c7.336,0,14.537-0.574,21.566-1.671
	C211.222,338.716,160.459,281.327,160.459,212.078z"/>
<path style="fill:#7EAF31;" d="M322.115,234.412c-6.901-6.869-23.617-17.128-38.91-22.399c15.266-5.341,31.935-15.679,38.803-22.581
	c12.005-12.061,11.958-31.57-0.102-43.573c-12.06-12.003-31.57-11.959-43.573,0.102c-6.869,6.902-17.128,23.617-22.399,38.91
	c-5.341-15.266-15.679-31.935-22.581-38.803c-12.061-12.005-31.57-11.959-43.573,0.102c-12.005,12.061-11.958,31.57,0.102,43.573
	c6.901,6.869,23.617,17.128,38.91,22.399c-15.266,5.341-31.935,15.679-38.803,22.581c-12.005,12.061-11.958,31.57,0.102,43.573
	c12.061,12.005,31.57,11.958,43.573-0.102c6.869-6.901,17.128-23.617,22.399-38.91c5.341,15.266,15.679,31.935,22.581,38.803
	c12.061,12.005,31.57,11.959,43.573-0.102C334.221,265.925,334.176,246.416,322.115,234.412z"/>
<g>
</g>
<g>
</g>
<g>
</g>
<g>
</g>
<g>
</g>
<g>
</g>
<g>
</g>
<g>
</g>
<g>
</g>
<g>
</g>
<g>
</g>
<g>
</g>
<g>
</g>
<g>
</g>
<g>
</g>
</svg>
