<?xml version="1.0" encoding="iso-8859-1"?>
<!-- Generator: Adobe Illustrator 19.0.0, SVG Export Plug-In . SVG Version: 6.00 Build 0)  -->
<svg version="1.1" id="Layer_1" xmlns="http://www.w3.org/2000/svg" xmlns:xlink="http://www.w3.org/1999/xlink" x="0px" y="0px"
	 viewBox="0 0 512 512" style="enable-background:new 0 0 512 512;" xml:space="preserve">
<path style="fill:#FDBB00;" d="M486.138,325.832c0,18.553-18.355,30.043-22.709,47.259c-1.881,0-3.727,0.13-5.549,0.367
	c-4.816-17.5-16.565-32.112-32.124-40.679c0.331-4.449,0.509-8.945,0.509-13.477c0-96.74-218.646-171.01-238.216-163.461
	c-14.104-11.572-32.124-18.517-51.777-18.517c-2.532,0-5.029,0.118-7.502,0.343c34.928-23.581,77.027-53.21,122.344-53.21
	C372.05,84.457,486.138,204.896,486.138,325.832z"/>
<path style="fill:#8CC63F;" d="M426.264,319.302c0,4.532-0.177,9.028-0.509,13.477c-9.513-5.242-20.434-8.211-32.053-8.211
	c-4.425,0-8.756,0.438-12.933,1.254c0.107-2.165,0.166-4.331,0.166-6.52c0-71.703-58.119-129.822-129.822-129.822
	c-12.791,0-25.155,1.846-36.822,5.301c-4.792-15.441-14.045-28.93-26.244-38.94c19.57-7.549,40.833-11.69,63.065-11.69
	C347.853,144.151,426.264,222.562,426.264,319.302z"/>
<path style="fill:#EF602E;" d="M512,319.302c0,26.468-3.94,52.026-11.276,76.092c-7.135-13.276-21.156-22.304-37.295-22.304
	c4.354-17.216,6.661-35.236,6.661-53.789c0-120.936-98.041-218.977-218.977-218.977c-45.317,0-87.416,13.761-122.344,37.342
	c-34.242,3.112-62.367,27.38-71.229,59.634c-2.236-0.296-4.496-0.461-6.803-0.461c-15.11,0-28.705,6.449-38.194,16.742
	C53.103,122.167,144.671,58.415,251.113,58.415C395.193,58.415,512,175.222,512,319.302z"/>
<path style="fill:#E6E6E6;" d="M219.084,216.102c17.689,4.473,30.787,20.505,30.787,39.59c0,22.552-18.281,40.833-40.833,40.833
	c-11.3,0-142.494,0-157.119,0C23.238,296.525,0,273.275,0,244.606c0-13.56,5.206-25.912,13.725-35.165
	c9.489-10.294,23.084-16.742,38.194-16.742c2.307,0,4.567,0.166,6.803,0.461c8.862-32.254,36.987-56.522,71.229-59.634
	c2.473-0.225,4.969-0.343,7.502-0.343c19.653,0,37.673,6.945,51.777,18.517c12.199,10.01,21.452,23.499,26.244,38.94
	c2.366,7.655,3.644,15.784,3.644,24.22C219.119,215.274,219.096,215.688,219.084,216.102z"/>
<path style="fill:#CCCCCC;" d="M39.044,244.606c0-13.56,5.206-25.912,13.725-35.165c9.489-10.294,23.084-16.742,38.194-16.742
	c2.307,0,4.567,0.166,6.803,0.461c7.799-28.382,30.514-50.572,59.186-57.613c-6.25-1.533-12.775-2.364-19.499-2.364
	c-2.532,0-5.029,0.118-7.502,0.343c-34.242,3.112-62.367,27.38-71.229,59.634c-2.236-0.296-4.496-0.461-6.803-0.461
	c-15.11,0-28.705,6.449-38.194,16.742C5.206,218.693,0,231.046,0,244.606c0,28.669,23.238,51.919,51.919,51.919
	c4.448,0,19.685,0,39.044,0C62.282,296.525,39.044,273.275,39.044,244.606z"/>
<path style="fill:#E6E6E6;" d="M501.316,391.253c3.206,5.963,5.029,12.779,5.029,20.02c0,23.368-18.943,42.312-42.324,42.312
	c-11.927,0-118.877,0-128.095,0c-18.387,0-33.296-14.897-33.296-33.284c0-15.559,10.673-28.622,25.108-32.278
	c-0.012-0.331-0.035-0.674-0.035-1.018c0-32.349,23.073-59.303,53.659-65.325c4.177-0.816,8.507-1.254,12.932-1.254
	c11.619,0,22.54,2.97,32.053,8.211c15.559,8.566,27.309,23.179,32.124,40.679c1.822-0.237,3.668-0.367,5.549-0.367
	C480.16,368.949,494.181,377.977,501.316,391.253z"/>
<path style="fill:#CCCCCC;" d="M327.477,420.301c0-15.559,10.673-28.622,25.108-32.278c-0.012-0.331-0.035-0.674-0.035-1.018
	c0-32.349,23.073-59.303,53.659-65.325c0.175-0.034,0.354-0.058,0.53-0.091c-4.031-0.762-8.19-1.163-12.444-1.163
	c-4.425,0-8.756,0.438-12.933,1.254c-30.586,6.023-53.659,32.976-53.659,65.325c0,0.343,0.024,0.686,0.035,1.018
	c-14.435,3.656-25.108,16.719-25.108,32.278c0,18.387,14.909,33.284,33.296,33.284c2.475,0,12.006,0,24.846,0
	C342.385,453.585,327.477,438.688,327.477,420.301z"/>
<g>
</g>
<g>
</g>
<g>
</g>
<g>
</g>
<g>
</g>
<g>
</g>
<g>
</g>
<g>
</g>
<g>
</g>
<g>
</g>
<g>
</g>
<g>
</g>
<g>
</g>
<g>
</g>
<g>
</g>
</svg>
