<?xml version="1.0" encoding="iso-8859-1"?>
<!-- Generator: Adobe Illustrator 19.0.0, SVG Export Plug-In . SVG Version: 6.00 Build 0)  -->
<svg version="1.1" id="Layer_1" xmlns="http://www.w3.org/2000/svg" xmlns:xlink="http://www.w3.org/1999/xlink" x="0px" y="0px"
	 viewBox="0 0 512 512" style="enable-background:new 0 0 512 512;" xml:space="preserve">
<polygon style="fill:#F2F2F2;" points="66.045,429.642 66.045,139.669 445.954,139.669 445.954,512 66.045,512 66.045,464.882 "/>
<polygon style="fill:#E6E6E6;" points="445.955,166.022 445.955,228.677 407.957,207.792 369.985,228.677 332.001,207.792 
	294.003,228.677 256.018,207.792 218.034,228.677 180.036,207.792 142.038,228.677 104.04,207.792 66.056,228.677 66.042,228.677 
	66.042,166.022 "/>
<polygon style="fill:#F2F2F2;" points="445.955,139.669 445.955,202.324 407.957,181.439 369.985,202.324 332.001,181.439 
	294.003,202.324 256.018,181.439 218.034,202.324 180.036,181.439 142.038,202.324 104.04,181.439 66.056,202.324 66.042,202.324 
	66.042,139.669 "/>
<path style="fill:#8CC63F;" d="M354.192,398.165c-10.249-10.201-35.076-25.438-57.786-33.266
	c22.673-7.934,47.429-23.287,57.63-33.536c17.828-17.913,17.76-46.886-0.151-64.714c-17.913-17.828-46.886-17.76-64.714,0.151
	c-10.201,10.249-25.438,35.076-33.266,57.786c-7.934-22.673-23.287-47.429-33.536-57.63c-17.913-17.828-46.886-17.76-64.714,0.151
	c-17.828,17.913-17.76,46.886,0.151,64.714c10.249,10.201,35.076,25.438,57.786,33.266c-22.673,7.934-47.429,23.287-57.63,33.536
	c-17.828,17.913-17.76,46.886,0.151,64.714c17.913,17.828,46.886,17.76,64.714-0.151c10.201-10.249,25.438-35.076,33.266-57.786
	c7.934,22.673,23.287,47.429,33.536,57.63c17.913,17.828,46.886,17.76,64.714-0.151
	C372.173,444.967,372.104,415.993,354.192,398.165z"/>
<rect x="49.29" style="fill:#FDBB00;" width="413.42" height="146.195"/>
<g>
	<circle style="fill:#A67C52;" cx="335.295" cy="73.098" r="24.473"/>
	<circle style="fill:#A67C52;" cx="176.699" cy="73.098" r="24.473"/>
</g>
<g>
</g>
<g>
</g>
<g>
</g>
<g>
</g>
<g>
</g>
<g>
</g>
<g>
</g>
<g>
</g>
<g>
</g>
<g>
</g>
<g>
</g>
<g>
</g>
<g>
</g>
<g>
</g>
<g>
</g>
</svg>
