<?xml version="1.0" encoding="utf-8"?>
<!-- Generator: Adobe Illustrator 25.2.1, SVG Export Plug-In . SVG Version: 6.00 Build 0)  -->
<svg version="1.1" id="Layer_1" xmlns="http://www.w3.org/2000/svg" xmlns:xlink="http://www.w3.org/1999/xlink" x="0px" y="0px"
	 viewBox="0 0 62 36" style="enable-background:new 0 0 62 36;" xml:space="preserve">
<style type="text/css">
	.st0{fill:#2775CA;}
	.st1{fill:#FFFFFF;}
	.st2{fill:#F3BA2F;}
	.st3{fill:#F4B731;}
	.st4{fill-rule:evenodd;clip-rule:evenodd;fill:#FFFDFA;}
	.st5{fill:#53AE94;}
	.st6{fill:#F8B153;}
</style>
<g id="g941_2_" transform="matrix(0.10483594,0,0,0.10483594,265.97266,217.4375)">
	<path id="path924_2_" class="st0" d="M-2279.49-1730.588c47.574,0,85.849-38.274,85.849-85.849s-38.274-85.848-85.849-85.848
		c-47.574,0-85.848,38.273-85.848,85.848S-2327.064-1730.588-2279.49-1730.588z"/>
	<path id="path926_2_" class="st1" d="M-2255.882-1802.844c0-12.519-7.512-16.812-22.536-18.6
		c-10.731-1.431-12.877-4.292-12.877-9.301s3.578-8.227,10.731-8.227c6.438,0,10.016,2.146,11.804,7.512
		c0.358,1.073,1.431,1.788,2.505,1.788h5.722c1.431,0,2.504-1.073,2.504-2.503v-0.358c-1.431-7.87-7.87-13.95-16.097-14.666v-8.585
		c0-1.431-1.073-2.504-2.861-2.862h-5.365c-1.431,0-2.504,1.073-2.862,2.862v8.227c-10.731,1.431-17.527,8.585-17.527,17.528
		c0,11.804,7.154,16.453,22.177,18.242c10.016,1.788,13.236,3.935,13.236,9.658s-5.009,9.658-11.804,9.658
		c-9.301,0-12.52-3.935-13.594-9.301c-0.357-1.43-1.43-2.146-2.504-2.146h-6.082c-1.43,0-2.503,1.073-2.503,2.504v0.358
		c1.43,8.942,7.153,15.38,18.958,17.169v8.585c0,1.43,1.073,2.503,2.861,2.861h5.365c1.431,0,2.505-1.073,2.862-2.861v-8.585
		C-2263.036-1785.675-2255.882-1793.186-2255.882-1802.844L-2255.882-1802.844z"/>
	<path id="path928_2_" class="st1" d="M-2297.733-1765.286c-27.901-10.015-42.209-41.135-31.835-68.678
		c5.365-15.023,17.169-26.469,31.835-31.835c1.431-0.715,2.146-1.789,2.146-3.578v-5.008c0-1.431-0.715-2.504-2.146-2.861
		c-0.358,0-1.073,0-1.431,0.357c-33.981,10.731-52.582,46.859-41.851,80.841c6.438,20.031,21.82,35.412,41.851,41.851
		c1.431,0.715,2.862,0,3.219-1.431c0.358-0.357,0.358-0.715,0.358-1.43v-5.008C-2295.587-1763.14-2296.66-1764.57-2297.733-1765.286
		z M-2259.816-1876.889c-1.431-0.715-2.862,0-3.219,1.431c-0.358,0.358-0.358,0.715-0.358,1.431v5.008
		c0,1.431,1.073,2.861,2.146,3.578c27.901,10.015,42.209,41.135,31.835,68.678c-5.365,15.024-17.17,26.469-31.835,31.835
		c-1.431,0.715-2.146,1.788-2.146,3.578v5.008c0,1.431,0.715,2.504,2.146,2.861c0.358,0,1.073,0,1.431-0.357
		c33.981-10.731,52.582-46.859,41.851-80.841C-2224.404-1855.069-2240.143-1870.45-2259.816-1876.889z"/>
</g>
<g>
	<circle class="st2" cx="9" cy="9" r="9"/>
	<g id="Layer_2_1_">
		<g id="Layer_1-2">
			<path class="st1" d="M9,2.731l1.549,1.586L6.649,8.217L5.101,6.668L9,2.731z"/>
			<path class="st1" d="M11.351,5.082l1.549,1.586l-6.25,6.25l-1.549-1.549L11.351,5.082z"/>
			<path class="st1" d="M4.299,7.433l1.549,1.586l-1.549,1.549L2.75,9.019L4.299,7.433z"/>
			<path class="st1" d="M13.701,7.433l1.549,1.586L9,15.269L7.451,13.72L13.701,7.433z"/>
		</g>
	</g>
</g>
<g>
	<circle class="st3" cx="9" cy="27" r="9"/>
	<path class="st4" d="M5.428,22.312h3.75c2.281,0,4.01,1.24,4.653,3.043H15v1.09h-0.922c0.018,0.173,0.028,0.348,0.028,0.526V27
		c0,0.198-0.012,0.395-0.035,0.591H15v1.09h-1.191c-0.66,1.778-2.376,3.007-4.631,3.007h-3.75v-3.007H4.125v-1.09h1.303v-1.144
		H4.125v-1.09h1.303V22.312L5.428,22.312z M6.477,28.681v2.028h2.702c1.667,0,2.906-0.812,3.483-2.028H6.477z M12.982,27.59H6.477
		v-1.145h6.508c0.024,0.18,0.036,0.365,0.036,0.553v0.027C13.021,27.215,13.007,27.403,12.982,27.59L12.982,27.59z M9.179,23.289
		c1.675,0,2.917,0.834,3.491,2.067H6.477v-2.067H9.179z"/>
</g>
<g>
	<path class="st5" d="M26.963,0c4.97,0,9,4.03,9,9s-4.03,9-9,9s-9-4.028-9-9S21.992,0,26.963,0"/>
	<path class="st1" d="M28.074,7.801V6.462h3.062v-2.04h-8.337v2.04h3.062V7.8c-2.488,0.115-4.359,0.607-4.359,1.198
		s1.872,1.083,4.359,1.198v4.288h2.214v-4.29c2.484-0.115,4.351-0.607,4.351-1.197S30.558,7.916,28.074,7.801 M28.074,9.832V9.831
		c-0.062,0.004-0.384,0.023-1.098,0.023c-0.572,0-0.974-0.016-1.115-0.024v0.002c-2.198-0.097-3.84-0.48-3.84-0.939
		s1.641-0.84,3.84-0.938v1.495c0.144,0.01,0.556,0.034,1.125,0.034c0.682,0,1.026-0.028,1.089-0.034V7.956
		c2.194,0.097,3.832,0.481,3.832,0.938s-1.638,0.84-3.832,0.938"/>
</g>
<g>
	<circle class="st6" cx="44" cy="18" r="18"/>
	<g>
		<path class="st1" d="M47.564,29c-3.264,0-6.527,0-9.791,0c-0.555-0.3-0.639-0.792-0.631-1.373c0.024-1.75,0.009-3.501,0.009-5.251
			c0-0.431,0.003-0.862-0.002-1.292c-0.002-0.143,0.034-0.225,0.196-0.224c1.338,0.002,2.676-0.002,4.014,0.009
			c0.064,0.001,0.161,0.113,0.183,0.19c0.032,0.11,0.008,0.236,0.008,0.355c0,0.871-0.003,1.741,0.001,2.612
			c0.002,0.384,0.138,0.569,0.446,0.569c1.613,0.004,3.227,0.025,4.839-0.012c1.088-0.025,1.99-0.99,2.038-2.082
			c0.054-1.233-0.948-2.285-2.2-2.292c-1.384-0.008-2.768-0.009-4.152,0.004c-0.27,0.002-0.337-0.082-0.335-0.343
			c0.013-1.255,0.012-2.511,0-3.767c-0.002-0.243,0.065-0.312,0.307-0.31c1.384,0.011,2.768,0.006,4.152,0.005
			c1.235-0.001,2.225-0.969,2.229-2.176c0.004-1.215-0.997-2.203-2.234-2.204c-1.485-0.001-2.97,0-4.454,0
			c-0.504,0-0.636,0.128-0.637,0.63c-0.001,0.944-0.005,1.888,0.004,2.832c0.002,0.203-0.06,0.272-0.266,0.271
			c-1.292-0.007-2.585-0.007-3.877-0.001c-0.206,0.001-0.265-0.073-0.265-0.274c0.006-2.3,0.003-4.601,0.005-6.901
			c0-0.401,0.178-0.701,0.547-0.879c0.048-0.023,0.087-0.065,0.13-0.098c3.209,0,6.417,0,9.626,0
			c0.263,0.067,0.527,0.131,0.789,0.202c2.613,0.712,4.272,2.39,4.87,5.019c0.47,2.065-0.02,3.96-1.366,5.613
			c-0.109,0.133-0.108,0.212,0.002,0.347c0.975,1.198,1.494,2.565,1.519,4.118c0.05,3.078-1.987,5.748-4.971,6.504
			C48.052,28.865,47.808,28.934,47.564,29z M45.353,17.997c-0.005,0.288,0.222,0.533,0.505,0.544
			c0.291,0.011,0.549-0.241,0.548-0.534c-0.001-0.281-0.245-0.529-0.525-0.535C45.608,17.466,45.359,17.714,45.353,17.997z
			 M43.806,18.541c0.273,0.022,0.546-0.211,0.568-0.485c0.023-0.288-0.215-0.567-0.5-0.584c-0.269-0.016-0.536,0.224-0.559,0.501
			C43.293,18.24,43.535,18.519,43.806,18.541z"/>
		<path class="st1" d="M41.551,17.997c0,0.586,0.002,1.173-0.001,1.759c-0.002,0.363-0.093,0.452-0.461,0.452
			c-1.154,0.001-2.309,0.001-3.463,0c-0.368,0-0.475-0.106-0.475-0.475c-0.002-1.145-0.001-2.29,0-3.435
			c0-0.384,0.111-0.497,0.484-0.498c1.145-0.001,2.29-0.001,3.436,0c0.39,0,0.478,0.092,0.479,0.493
			C41.552,16.861,41.551,17.429,41.551,17.997z M38.095,17.977c0,0.321,0.01,0.642-0.003,0.962c-0.01,0.235,0.076,0.332,0.315,0.329
			c0.632-0.008,1.264-0.007,1.896,0c0.23,0.003,0.348-0.077,0.324-0.321c-0.008-0.082-0.006-0.165,0-0.247
			c0.01-0.166-0.065-0.229-0.228-0.225c-0.238,0.006-0.477,0.009-0.714-0.006c-0.279-0.017-0.475-0.228-0.466-0.477
			c0.009-0.242,0.198-0.432,0.468-0.447c0.219-0.012,0.44-0.017,0.659-0.002c0.216,0.015,0.308-0.061,0.283-0.279
			c-0.009-0.081-0.006-0.165-0.001-0.247c0.012-0.191-0.086-0.265-0.264-0.265c-0.669,0-1.337,0.001-2.006-0.001
			c-0.181,0-0.268,0.073-0.263,0.264C38.101,17.336,38.095,17.657,38.095,17.977z"/>
		<path class="st1" d="M36.508,18.027c0,0.641,0.005,1.283-0.006,1.924c-0.001,0.085-0.079,0.236-0.132,0.241
			c-0.772,0.074-1.506,0.005-2.052-0.649c-0.352-0.422-0.594-0.9-0.744-1.426c-0.017-0.059-0.025-0.131-0.008-0.188
			c0.202-0.689,0.511-1.314,1.091-1.77c0.51-0.401,1.11-0.38,1.707-0.345c0.052,0.003,0.135,0.152,0.137,0.234
			C36.513,16.708,36.508,17.367,36.508,18.027z"/>
	</g>
</g>
</svg>
