<?xml version="1.0" encoding="utf-8"?>
<!-- Generator: Adobe Illustrator 25.2.3, SVG Export Plug-In . SVG Version: 6.00 Build 0)  -->
<svg version="1.1" id="Layer_1" xmlns="http://www.w3.org/2000/svg" xmlns:xlink="http://www.w3.org/1999/xlink" x="0px" y="0px"
	 viewBox="0 0 36 36" style="enable-background:new 0 0 36 36;" xml:space="preserve">
<style type="text/css">
	.st0{fill-rule:evenodd;clip-rule:evenodd;fill:#4958C5;}
	.st1{fill:#FFFFFF;}
</style>
<path class="st0" d="M18,36C8.1,36,0.001,27.9,0.001,17.91C0.091,8.01,8.101-0.089,18.09,0C27.99,0.09,36,8.1,36,18.18
	C35.91,27.99,27.899,36,18,36z"/>
<path class="st1" d="M23.166,7.481C23.971,7.409,24.407,7.308,26,7.828V5.653c-1.09-0.269-2.398-0.231-3.488-0.134
	c-1.191,0.067-3.891,1.325-3.891,4.243v1.325h-1.576v1.979h1.576v7.463c0,0-1.023-0.973-3.12-0.973
	c-2.918,0-5.501,2.247-5.501,5.467c0,3.22,2.398,5.531,5.568,5.531c3.17,0,5.384-2.713,5.451-5.531c0.067-2.817,0-6.02,0-6.02
	v-5.937h4.134v-1.979h-4.285V9.879C20.868,8.555,22.243,7.565,23.166,7.481z M15.494,28.252c-1.778,0-3.22-1.442-3.22-3.22
	c0-1.778,1.442-3.22,3.22-3.22c1.778,0,3.22,1.442,3.22,3.22C18.714,26.81,17.272,28.252,15.494,28.252z"/>
</svg>
