<?xml version="1.0" encoding="utf-8"?>
<!-- Generator: Adobe Illustrator 25.2.1, SVG Export Plug-In . SVG Version: 6.00 Build 0)  -->
<svg version="1.1" id="Layer_1" xmlns="http://www.w3.org/2000/svg" xmlns:xlink="http://www.w3.org/1999/xlink" x="0px" y="0px"
	 viewBox="0 0 36 36" style="enable-background:new 0 0 36 36;" xml:space="preserve">
<style type="text/css">
	.st0{fill:url(#SVGID_1_);}
	.st1{fill:#CA93CA;}
	.st2{fill:#ADDA7F;}
	.st3{fill:#78D0E1;}
	.st4{fill:#699DE8;}
	.st5{fill:#F1A095;}
	.st6{fill:#F1D154;}
</style>
<g>
	
		<linearGradient id="SVGID_1_" gradientUnits="userSpaceOnUse" x1="18" y1="38" x2="18" y2="2" gradientTransform="matrix(1 0 0 -1 0 38)">
		<stop  offset="0" style="stop-color:#E7F4EB"/>
		<stop  offset="1" style="stop-color:#E7EAFB"/>
	</linearGradient>
	<circle class="st0" cx="18" cy="18" r="18"/>
	<g>
		<path class="st1" d="M25.588,18.618c-0.086,0-0.174-0.018-0.257-0.057l-7.677-3.53c-0.31-0.142-0.446-0.509-0.303-0.819
			s0.509-0.447,0.819-0.303l7.677,3.53c0.31,0.142,0.446,0.509,0.303,0.819C26.046,18.485,25.822,18.618,25.588,18.618z"/>
	</g>
	<g>
		<path class="st2" d="M10.677,18.53c-0.231,0-0.452-0.13-0.559-0.352c-0.146-0.308-0.015-0.677,0.293-0.823l7.235-3.441
			c0.308-0.147,0.676-0.016,0.823,0.292c0.146,0.308,0.015,0.677-0.293,0.823l-7.235,3.441C10.856,18.51,10.766,18.53,10.677,18.53z
			"/>
	</g>
	<g>
		<path class="st3" d="M17.294,30.706c-0.197,0-0.386-0.094-0.504-0.261l-5.745-8.114c-0.169-0.238-0.147-0.562,0.051-0.776
			c0.198-0.214,0.52-0.26,0.77-0.111l5.745,3.436c0.187,0.112,0.301,0.313,0.301,0.53v4.679c0,0.269-0.174,0.507-0.43,0.589
			C17.419,30.697,17.356,30.706,17.294,30.706z M13.745,24.007l2.932,4.14V25.76L13.745,24.007z"/>
	</g>
	<g>
		<path class="st4" d="M18.529,30.722c-0.063,0-0.126-0.01-0.189-0.029c-0.256-0.082-0.429-0.32-0.429-0.588v-4.693
			c0-0.218,0.115-0.42,0.303-0.531l5.822-3.446c0.251-0.15,0.572-0.102,0.77,0.114c0.197,0.215,0.217,0.539,0.047,0.777
			l-5.822,8.139C18.914,30.629,18.725,30.722,18.529,30.722z M19.147,25.763v2.416l2.997-4.19L19.147,25.763z"/>
	</g>
	<g>
		<path class="st5" d="M18.529,22.848c-0.107,0-0.214-0.028-0.31-0.083c-0.191-0.111-0.307-0.314-0.307-0.534V6.273
			c0-0.277,0.184-0.521,0.451-0.595c0.266-0.076,0.551,0.038,0.695,0.275l7.173,11.858c0.086,0.143,0.111,0.314,0.069,0.475
			c-0.041,0.161-0.147,0.299-0.291,0.381l-7.173,4.099C18.741,22.82,18.635,22.848,18.529,22.848z M19.147,8.487v12.678l5.699-3.257
			L19.147,8.487z"/>
	</g>
	<g>
		<path class="st6" d="M17.294,22.842c-0.107,0-0.213-0.027-0.309-0.083l-7.089-4.092c-0.143-0.083-0.247-0.219-0.289-0.38
			c-0.042-0.16-0.017-0.33,0.067-0.472l7.089-11.839c0.143-0.238,0.427-0.352,0.695-0.278c0.268,0.074,0.453,0.318,0.453,0.595
			v15.931c0,0.221-0.117,0.425-0.308,0.535C17.508,22.815,17.401,22.842,17.294,22.842z M11.058,17.911l5.619,3.243V8.527
			L11.058,17.911z"/>
	</g>
</g>
</svg>
