<?xml version="1.0" encoding="UTF-8"?>
<svg xmlns="http://www.w3.org/2000/svg" xmlns:xlink="http://www.w3.org/1999/xlink" width="512pt" height="512pt" viewBox="0 0 512 512" version="1.1">
<g id="surface1">
<path style=" stroke:none;fill-rule:nonzero;fill:rgb(15.294118%,45.882353%,79.215686%);fill-opacity:1;" d="M 383.222656 510.449219 C 453.488281 510.449219 510.449219 453.488281 510.449219 383.222656 C 510.449219 312.960938 453.488281 256 383.222656 256 C 312.960938 256 256 312.960938 256 383.222656 C 255.917969 416.992188 269.296875 449.398438 293.171875 473.273438 C 317.050781 497.152344 349.457031 510.53125 383.222656 510.449219 Z M 383.222656 510.449219 "/>
<path style=" stroke:none;fill-rule:nonzero;fill:rgb(100%,100%,100%);fill-opacity:1;" d="M 418.210938 403.367188 C 418.210938 384.808594 407.078125 378.453125 384.8125 375.804688 C 368.910156 373.679688 365.730469 369.441406 365.730469 362.019531 C 365.730469 354.597656 371.03125 349.828125 381.632812 349.828125 C 389.4375 348.601562 396.929688 353.375 399.125 360.960938 C 399.6875 362.535156 401.167969 363.589844 402.839844 363.609375 L 411.320312 363.609375 C 412.308594 363.632812 413.269531 363.25 413.96875 362.550781 C 414.671875 361.847656 415.054688 360.890625 415.03125 359.898438 L 415.03125 359.371094 C 412.917969 347.558594 403.132812 338.640625 391.175781 337.636719 L 391.175781 324.914062 C 391.175781 322.792969 389.585938 321.203125 386.933594 320.671875 L 378.984375 320.671875 C 376.863281 320.671875 375.273438 322.261719 374.742188 324.914062 L 374.742188 337.105469 C 360.628906 337.644531 349.308594 348.964844 348.769531 363.078125 C 348.769531 380.574219 359.371094 387.464844 381.632812 390.121094 C 396.476562 392.769531 401.246094 395.949219 401.246094 404.433594 C 401.246094 412.917969 393.824219 418.746094 383.753906 418.746094 C 369.972656 418.746094 365.195312 412.914062 363.609375 404.960938 C 363.28125 403.15625 361.734375 401.828125 359.898438 401.78125 L 350.886719 401.78125 C 349.898438 401.757812 348.9375 402.140625 348.238281 402.84375 C 347.535156 403.542969 347.152344 404.5 347.175781 405.492188 L 347.175781 406.023438 C 349.179688 420.171875 360.996094 430.871094 375.273438 431.464844 L 375.273438 444.1875 C 375.273438 446.304688 376.863281 447.894531 379.511719 448.425781 L 387.464844 448.425781 C 389.585938 448.425781 391.175781 446.835938 391.707031 444.1875 L 391.707031 431.464844 C 406.390625 430.183594 417.789062 418.105469 418.210938 403.367188 Z M 418.210938 403.367188 "/>
<path style=" stroke:none;fill-rule:nonzero;fill:rgb(100%,100%,100%);fill-opacity:1;" d="M 356.1875 459.027344 C 324.9375 447.574219 304.160156 417.832031 304.160156 384.546875 C 304.160156 351.261719 324.9375 321.519531 356.1875 310.066406 C 358.273438 309.160156 359.550781 307.03125 359.371094 304.765625 L 359.371094 297.34375 C 359.519531 295.332031 358.160156 293.523438 356.1875 293.105469 C 355.441406 293.027344 354.691406 293.214844 354.066406 293.632812 C 314.464844 306.21875 287.566406 342.992188 287.566406 384.546875 C 287.566406 426.097656 314.464844 462.871094 354.066406 475.457031 C 354.960938 475.976562 356.050781 476.035156 356.992188 475.617188 C 357.9375 475.195312 358.625 474.347656 358.839844 473.335938 C 359.371094 472.808594 359.371094 472.277344 359.371094 471.21875 L 359.371094 463.796875 C 359.03125 461.828125 357.875 460.09375 356.1875 459.027344 Z M 412.378906 293.636719 C 411.484375 293.117188 410.398438 293.058594 409.453125 293.480469 C 408.507812 293.898438 407.824219 294.746094 407.609375 295.757812 C 407.078125 296.289062 407.078125 296.816406 407.078125 297.878906 L 407.078125 305.300781 C 407.261719 307.460938 408.4375 309.417969 410.257812 310.601562 C 441.507812 322.054688 462.285156 351.796875 462.285156 385.078125 C 462.285156 418.363281 441.507812 448.105469 410.257812 459.558594 C 408.175781 460.464844 406.898438 462.597656 407.078125 464.859375 L 407.078125 472.28125 C 406.929688 474.292969 408.289062 476.105469 410.257812 476.523438 C 411.007812 476.601562 411.757812 476.414062 412.378906 475.992188 C 451.953125 463.230469 478.777344 426.398438 478.777344 384.816406 C 478.777344 343.234375 451.953125 306.402344 412.378906 293.636719 Z M 412.378906 293.636719 "/>
<path style=" stroke:none;fill-rule:nonzero;fill:rgb(31.372549%,68.627451%,58.431373%);fill-opacity:1;" d="M 256 383.222656 C 256 453.488281 199.039062 510.449219 128.777344 510.449219 C 58.511719 510.449219 1.550781 453.488281 1.550781 383.222656 C 1.550781 312.960938 58.511719 256 128.777344 256 C 199.039062 256 256 312.960938 256 383.222656 Z M 256 383.222656 "/>
<path style=" stroke:none;fill-rule:evenodd;fill:rgb(100%,100%,100%);fill-opacity:1;" d="M 143.496094 388.230469 C 142.675781 388.292969 138.425781 388.546875 128.949219 388.546875 C 121.414062 388.546875 116.0625 388.324219 114.183594 388.230469 C 85.0625 386.949219 63.3125 381.875 63.3125 375.804688 C 63.3125 369.734375 85.054688 364.671875 114.183594 363.371094 L 114.183594 383.179688 C 116.089844 383.316406 121.542969 383.636719 129.082031 383.636719 C 138.125 383.636719 142.65625 383.261719 143.46875 383.1875 L 143.46875 363.382812 C 172.539062 364.679688 194.230469 369.75 194.230469 375.804688 C 194.230469 381.863281 172.542969 386.933594 143.46875 388.222656 Z M 143.496094 361.335938 L 143.496094 343.609375 L 184.0625 343.609375 L 184.0625 316.574219 L 73.621094 316.574219 L 73.621094 343.609375 L 114.175781 343.609375 L 114.175781 361.328125 C 81.21875 362.839844 56.417969 369.371094 56.417969 377.195312 C 56.417969 385.019531 81.207031 391.546875 114.175781 393.066406 L 114.175781 449.867188 L 143.492188 449.867188 L 143.492188 393.046875 C 176.378906 391.53125 201.132812 385.007812 201.132812 377.191406 C 201.132812 369.371094 176.402344 362.847656 143.492188 361.328125 Z M 143.496094 361.335938 Z M 143.496094 361.335938 "/>
<path style=" stroke:none;fill-rule:nonzero;fill:rgb(94.117647%,72.54902%,4.313725%);fill-opacity:1;" d="M 510.449219 128.777344 C 510.449219 199.039062 453.488281 256 383.222656 256 C 312.960938 256 256 199.039062 256 128.777344 C 256 58.511719 312.960938 1.550781 383.222656 1.550781 C 453.488281 1.550781 510.449219 58.511719 510.449219 128.777344 Z M 510.449219 128.777344 "/>
<path style=" stroke:none;fill-rule:evenodd;fill:rgb(100%,100%,100%);fill-opacity:1;" d="M 334.277344 102.457031 L 383.558594 53.175781 L 403.210938 72.828125 L 353.929688 122.109375 Z M 334.3125 161.355469 L 413.074219 82.585938 L 432.726562 102.238281 L 353.960938 181.007812 Z M 442.535156 112.09375 L 363.769531 190.867188 L 383.421875 210.527344 L 462.195312 131.753906 Z M 304.839844 131.886719 L 324.496094 112.234375 L 344.148438 131.886719 L 324.496094 151.539062 Z M 304.839844 131.886719 "/>
<path style=" stroke:none;fill-rule:nonzero;fill:rgb(96.078431%,67.45098%,21.568627%);fill-opacity:1;" d="M 128.777344 1.550781 C 199.039062 1.550781 256 58.511719 256 128.777344 C 256 199.039062 199.039062 256 128.777344 256 C 58.511719 256 1.550781 199.039062 1.550781 128.777344 C 1.550781 58.511719 58.511719 1.550781 128.777344 1.550781 Z M 128.777344 1.550781 "/>
<path style=" stroke:none;fill-rule:nonzero;fill:rgb(99.607843%,99.607843%,99.215686%);fill-opacity:1;" d="M 133.464844 137.761719 L 181.808594 137.761719 C 182.839844 137.761719 183.324219 137.761719 183.40625 136.410156 C 183.804688 131.488281 183.804688 126.542969 183.40625 121.621094 C 183.40625 120.660156 182.929688 120.269531 181.894531 120.269531 L 85.675781 120.269531 C 84.488281 120.269531 84.167969 120.664062 84.167969 121.78125 L 84.167969 135.933594 C 84.167969 137.761719 84.167969 137.761719 86.070312 137.761719 Z M 178 103.726562 C 178.136719 103.371094 178.136719 102.976562 178 102.617188 C 177.195312 100.863281 176.234375 99.1875 175.121094 97.609375 C 173.453125 94.921875 171.480469 92.4375 169.238281 90.210938 C 168.179688 88.863281 166.949219 87.660156 165.578125 86.632812 C 158.691406 80.773438 150.515625 76.632812 141.722656 74.546875 C 137.285156 73.554688 132.753906 73.078125 128.210938 73.121094 L 85.511719 73.121094 C 84.320312 73.121094 84.160156 73.601562 84.160156 74.628906 L 84.160156 102.851562 C 84.160156 104.042969 84.160156 104.363281 85.671875 104.363281 L 177.429688 104.363281 C 177.429688 104.363281 178.230469 104.203125 178.390625 103.726562 Z M 178 154.300781 C 176.652344 154.152344 175.289062 154.152344 173.9375 154.300781 L 85.761719 154.300781 C 84.570312 154.300781 84.167969 154.300781 84.167969 155.890625 L 84.167969 183.484375 C 84.167969 184.757812 84.167969 185.078125 85.761719 185.078125 L 126.46875 185.078125 C 128.410156 185.222656 130.363281 185.089844 132.269531 184.679688 C 138.179688 184.257812 143.992188 182.972656 149.53125 180.863281 C 151.550781 180.160156 153.492188 179.253906 155.328125 178.160156 L 155.886719 178.160156 C 165.421875 173.207031 173.179688 165.398438 178.070312 155.828125 C 178.070312 155.828125 178.625 154.625 178 154.308594 Z M 68.1875 199.382812 L 68.1875 155.414062 C 68.1875 154.378906 68.1875 154.222656 66.917969 154.222656 L 49.660156 154.222656 C 48.699219 154.222656 48.308594 154.222656 48.308594 152.953125 L 48.308594 137.84375 L 66.753906 137.84375 C 67.785156 137.84375 68.195312 137.84375 68.195312 136.492188 L 68.195312 121.546875 C 68.195312 120.585938 68.195312 120.355469 66.925781 120.355469 L 49.660156 120.355469 C 48.699219 120.355469 48.308594 120.355469 48.308594 119.082031 L 48.308594 105.089844 C 48.308594 104.214844 48.308594 103.980469 49.589844 103.980469 L 66.675781 103.980469 C 67.867188 103.980469 68.1875 103.980469 68.1875 102.46875 L 68.1875 59.609375 C 68.1875 58.339844 68.1875 58.019531 69.777344 58.019531 L 129.410156 58.019531 C 133.734375 58.191406 138.039062 58.671875 142.292969 59.460938 C 151.054688 61.082031 159.476562 64.203125 167.179688 68.679688 C 172.28125 71.683594 176.984375 75.316406 181.171875 79.496094 C 184.316406 82.761719 187.164062 86.300781 189.679688 90.070312 C 192.179688 93.890625 194.261719 97.964844 195.890625 102.230469 C 196.097656 103.339844 197.152344 104.082031 198.265625 103.902344 L 212.507812 103.902344 C 214.332031 103.902344 214.332031 103.902344 214.414062 105.65625 L 214.414062 118.695312 C 214.414062 119.964844 213.933594 120.289062 212.660156 120.289062 L 201.679688 120.289062 C 200.570312 120.289062 200.238281 120.289062 200.328125 121.71875 C 200.761719 126.558594 200.761719 131.425781 200.328125 136.265625 C 200.328125 137.617188 200.328125 137.777344 201.847656 137.777344 L 214.398438 137.777344 C 214.957031 138.492188 214.398438 139.210938 214.398438 139.929688 C 214.480469 140.855469 214.480469 141.78125 214.398438 142.707031 L 214.398438 152.332031 C 214.398438 153.679688 214.003906 154.089844 212.800781 154.089844 L 197.769531 154.089844 C 196.722656 153.894531 195.703125 154.558594 195.464844 155.601562 C 191.882812 164.910156 186.164062 173.246094 178.765625 179.933594 C 176.0625 182.375 173.21875 184.65625 170.257812 186.769531 C 167.074219 188.601562 163.976562 190.507812 160.710938 192.019531 C 154.707031 194.71875 148.410156 196.71875 141.945312 197.980469 C 135.804688 199.074219 129.574219 199.582031 123.339844 199.492188 L 68.160156 199.492188 L 68.160156 199.410156 Z M 68.1875 199.382812 "/>
</g>
</svg>
